<mxfile host="app.diagrams.net" modified="2023-07-08T12:14:25.264Z" agent="Mozilla/5.0 (Macintosh; Intel Mac OS X 10_15_7) AppleWebKit/537.36 (KHTML, like Gecko) Chrome/114.0.0.0 Safari/537.36" etag="Ai1OioLQXOJn9k7Ui6-0" version="21.5.2" type="github">
  <diagram name="Page-1" id="74e2e168-ea6b-b213-b513-2b3c1d86103e">
    <mxGraphModel dx="1147" dy="1487" grid="1" gridSize="10" guides="1" tooltips="1" connect="1" arrows="1" fold="1" page="1" pageScale="1" pageWidth="1100" pageHeight="850" background="none" math="0" shadow="0">
      <root>
        <mxCell id="0" />
        <mxCell id="1" parent="0" />
        <mxCell id="77e6c97f196da883-1" value="Delegation" style="swimlane;html=1;childLayout=stackLayout;startSize=20;rounded=0;shadow=0;labelBackgroundColor=none;strokeWidth=1;fontFamily=Verdana;fontSize=8;align=center;movable=1;resizable=1;rotatable=1;deletable=1;editable=1;locked=0;connectable=1;" parent="1" vertex="1">
          <mxGeometry x="70" y="40" width="980" height="770" as="geometry" />
        </mxCell>
        <mxCell id="77e6c97f196da883-2" value="航空公司" style="swimlane;html=1;startSize=20;movable=1;resizable=1;rotatable=1;deletable=1;editable=1;locked=0;connectable=1;" parent="77e6c97f196da883-1" vertex="1">
          <mxGeometry y="20" width="360" height="750" as="geometry" />
        </mxCell>
        <mxCell id="77e6c97f196da883-8" value="发送DelegationRequest，表示希望&lt;br&gt;Delegate给地勤人员Read LO的权限" style="rounded=1;whiteSpace=wrap;html=1;shadow=0;labelBackgroundColor=none;strokeWidth=1;fontFamily=Verdana;fontSize=8;align=center;movable=1;resizable=1;rotatable=1;deletable=1;editable=1;locked=0;connectable=1;" parent="77e6c97f196da883-2" vertex="1">
          <mxGeometry x="20" y="65" width="200" height="60" as="geometry" />
        </mxCell>
        <mxCell id="LzLG4S2-5mhf3BxTma1q-9" style="edgeStyle=orthogonalEdgeStyle;rounded=0;orthogonalLoop=1;jettySize=auto;html=1;movable=1;resizable=1;rotatable=1;deletable=1;editable=1;locked=0;connectable=1;" edge="1" parent="77e6c97f196da883-2" source="LzLG4S2-5mhf3BxTma1q-4">
          <mxGeometry relative="1" as="geometry">
            <mxPoint x="740" y="225" as="targetPoint" />
          </mxGeometry>
        </mxCell>
        <mxCell id="LzLG4S2-5mhf3BxTma1q-4" value="航司发送Notification表示货代同意授权" style="rounded=1;whiteSpace=wrap;html=1;shadow=0;labelBackgroundColor=none;strokeWidth=1;fontFamily=Verdana;fontSize=8;align=center;movable=1;resizable=1;rotatable=1;deletable=1;editable=1;locked=0;connectable=1;" vertex="1" parent="77e6c97f196da883-2">
          <mxGeometry x="20" y="200" width="200" height="50" as="geometry" />
        </mxCell>
        <mxCell id="LzLG4S2-5mhf3BxTma1q-6" value="请求" style="text;html=1;strokeColor=none;fillColor=none;align=center;verticalAlign=middle;whiteSpace=wrap;rounded=0;movable=1;resizable=1;rotatable=1;deletable=1;editable=1;locked=0;connectable=1;" vertex="1" parent="77e6c97f196da883-2">
          <mxGeometry x="290" y="65" width="60" height="30" as="geometry" />
        </mxCell>
        <mxCell id="LzLG4S2-5mhf3BxTma1q-7" value="同意" style="text;html=1;strokeColor=none;fillColor=none;align=center;verticalAlign=middle;whiteSpace=wrap;rounded=0;movable=1;resizable=1;rotatable=1;deletable=1;editable=1;locked=0;connectable=1;" vertex="1" parent="77e6c97f196da883-2">
          <mxGeometry x="290" y="110" width="60" height="30" as="geometry" />
        </mxCell>
        <mxCell id="77e6c97f196da883-3" value="货运代理" style="swimlane;html=1;startSize=20;movable=1;resizable=1;rotatable=1;deletable=1;editable=1;locked=0;connectable=1;" parent="77e6c97f196da883-1" vertex="1">
          <mxGeometry x="360" y="20" width="320" height="750" as="geometry" />
        </mxCell>
        <mxCell id="77e6c97f196da883-11" value="基于信任链，货运代理统一同意授权，&lt;br&gt;并将该授权记录落盘" style="rounded=1;whiteSpace=wrap;html=1;shadow=0;labelBackgroundColor=none;strokeWidth=1;fontFamily=Verdana;fontSize=8;align=center;movable=1;resizable=1;rotatable=1;deletable=1;editable=1;locked=0;connectable=1;" parent="77e6c97f196da883-3" vertex="1">
          <mxGeometry x="30" y="65" width="240" height="60" as="geometry" />
        </mxCell>
        <mxCell id="LzLG4S2-5mhf3BxTma1q-11" value="通知" style="text;html=1;strokeColor=none;fillColor=none;align=center;verticalAlign=middle;whiteSpace=wrap;rounded=0;movable=1;resizable=1;rotatable=1;deletable=1;editable=1;locked=0;connectable=1;" vertex="1" parent="77e6c97f196da883-3">
          <mxGeometry x="140" y="190" width="60" height="30" as="geometry" />
        </mxCell>
        <mxCell id="LzLG4S2-5mhf3BxTma1q-15" style="edgeStyle=orthogonalEdgeStyle;rounded=0;orthogonalLoop=1;jettySize=auto;html=1;exitX=1;exitY=0.5;exitDx=0;exitDy=0;entryX=1;entryY=0.5;entryDx=0;entryDy=0;movable=1;resizable=1;rotatable=1;deletable=1;editable=1;locked=0;connectable=1;" edge="1" parent="77e6c97f196da883-3" target="LzLG4S2-5mhf3BxTma1q-12">
          <mxGeometry relative="1" as="geometry">
            <mxPoint x="380" y="290" as="sourcePoint" />
          </mxGeometry>
        </mxCell>
        <mxCell id="LzLG4S2-5mhf3BxTma1q-12" value="LO GET API&lt;br&gt;查找授权记录，若授权返回数据" style="rounded=1;whiteSpace=wrap;html=1;shadow=0;labelBackgroundColor=none;strokeWidth=1;fontFamily=Verdana;fontSize=8;align=center;movable=1;resizable=1;rotatable=1;deletable=1;editable=1;locked=0;connectable=1;" vertex="1" parent="77e6c97f196da883-3">
          <mxGeometry x="30" y="260" width="240" height="60" as="geometry" />
        </mxCell>
        <mxCell id="77e6c97f196da883-4" value="地勤人员" style="swimlane;html=1;startSize=20;movable=1;resizable=1;rotatable=1;deletable=1;editable=1;locked=0;connectable=1;" parent="77e6c97f196da883-1" vertex="1">
          <mxGeometry x="680" y="20" width="300" height="750" as="geometry" />
        </mxCell>
        <mxCell id="LzLG4S2-5mhf3BxTma1q-10" value="得到授权后地勤人员可访问货运代理&lt;br&gt;中LO" style="rounded=1;whiteSpace=wrap;html=1;shadow=0;labelBackgroundColor=none;strokeWidth=1;fontFamily=Verdana;fontSize=8;align=center;movable=1;resizable=1;rotatable=1;deletable=1;editable=1;locked=0;connectable=1;" vertex="1" parent="77e6c97f196da883-4">
          <mxGeometry x="60" y="200" width="200" height="180" as="geometry" />
        </mxCell>
        <mxCell id="LzLG4S2-5mhf3BxTma1q-16" value="成功访问" style="text;html=1;strokeColor=none;fillColor=none;align=center;verticalAlign=middle;whiteSpace=wrap;rounded=0;movable=1;resizable=1;rotatable=1;deletable=1;editable=1;locked=0;connectable=1;" vertex="1" parent="77e6c97f196da883-4">
          <mxGeometry x="-20" y="260" width="60" height="30" as="geometry" />
        </mxCell>
        <mxCell id="LzLG4S2-5mhf3BxTma1q-5" style="edgeStyle=orthogonalEdgeStyle;rounded=0;orthogonalLoop=1;jettySize=auto;html=1;entryX=1;entryY=0.75;entryDx=0;entryDy=0;movable=1;resizable=1;rotatable=1;deletable=1;editable=1;locked=0;connectable=1;" edge="1" parent="77e6c97f196da883-1" source="77e6c97f196da883-11" target="77e6c97f196da883-8">
          <mxGeometry relative="1" as="geometry">
            <Array as="points">
              <mxPoint x="350" y="130" />
              <mxPoint x="350" y="130" />
            </Array>
          </mxGeometry>
        </mxCell>
        <mxCell id="LzLG4S2-5mhf3BxTma1q-104" style="edgeStyle=orthogonalEdgeStyle;rounded=0;orthogonalLoop=1;jettySize=auto;html=1;entryX=0;entryY=0.5;entryDx=0;entryDy=0;" edge="1" parent="77e6c97f196da883-1" source="77e6c97f196da883-8" target="77e6c97f196da883-11">
          <mxGeometry relative="1" as="geometry" />
        </mxCell>
        <mxCell id="LzLG4S2-5mhf3BxTma1q-1" value="&lt;font style=&quot;&quot;&gt;&lt;font style=&quot;font-size: 24px;&quot;&gt;Delegation&lt;/font&gt;&lt;br&gt;&lt;/font&gt;&lt;div&gt;&lt;font size=&quot;3&quot;&gt;运输和物流链的一个独特特征是它们的顺序性，比如说货物从托运人转移到货运代理，再到地勤代理，再到航空公司。这条链上的每一节点都有需要向上游和下游共享的数据。 但是问题是，在大多数情况下，运输链上的各个节点并不总是互相认识，但确实需要访问彼此的数据。&lt;/font&gt;&lt;/div&gt;&lt;div&gt;&lt;font size=&quot;3&quot;&gt;&lt;br&gt;&lt;/font&gt;&lt;/div&gt;&lt;div&gt;&lt;font size=&quot;3&quot;&gt;在 ONE Record 中，创建数据的公司负责通知(Notification)其合作伙伴并向他们提供访问物流对象详细信息的接口。但是，这个合作伙伴公司可能需要与下游的另一家公司共享同一对象。&lt;/font&gt;&lt;/div&gt;&lt;div&gt;&lt;font size=&quot;3&quot;&gt;&lt;br&gt;&lt;/font&gt;&lt;/div&gt;&lt;div&gt;&lt;font size=&quot;3&quot;&gt;例如，当货运代理处收到航空公司可能也需要与其地勤人员共享数据。 第一步，货运代理为预订创建一个物流对象，并将其 URI 发送给航空公司。 当航空公司对该 Logistics 对象 URI 执行 HTTP GET 请求时，货运代理通常会授予访问权限并将数据返回给航空公司，但仅限于该航空公司，而不返回给其他人。 为了将预订 URI 共享给地勤人员，航空公司可以使用Delegation(访问委托)。&lt;/font&gt;&lt;/div&gt;&lt;div&gt;&lt;font size=&quot;3&quot;&gt;&lt;br&gt;&lt;/font&gt;&lt;/div&gt;&lt;div&gt;&lt;font size=&quot;3&quot;&gt;在访问委托协议中，client应用程序请求资源的所有者允许第三方代表他们访问受保护的物流对象。 在前面的例子中，航空公司通知数据所有者（即货运代理），表示希望地勤人员访问物流对象。 如果货运代理批准该请求，航空公司将向地面处理人员提供预订 URI，地面处理人员现在可以通过货运代理的 ONE Record API 上的 HTTP GET 请求检索数据。&lt;/font&gt;&lt;/div&gt;&lt;div&gt;&lt;font size=&quot;3&quot;&gt;&lt;br&gt;&lt;/font&gt;&lt;/div&gt;&lt;div&gt;&lt;font size=&quot;3&quot;&gt;同样，如果例子中的航空公司希望撤销其地勤人员对物流对象的访问权限，他们可以向货运代理提出撤销请求。撤销后地勤人员将不能问物流对象。&amp;nbsp;&lt;/font&gt;&lt;/div&gt;&lt;div&gt;&lt;font size=&quot;3&quot;&gt;&lt;br&gt;&lt;/font&gt;&lt;/div&gt;&lt;div&gt;&lt;font size=&quot;3&quot;&gt;公司请求向其合作伙伴授予访问权限的概念也可以由这些合作伙伴本身使用，这些合作伙伴现在已成为第三方。 在上面的示例中，地勤人员可以请求货运代理为其联运合作伙伴提供访问权限。 货运代理将授予访问权限，前提是他们信任航空公司，而航空公司也信任他们的地勤人员，而地勤人员也信任他们的联运合作伙伴。&lt;/font&gt;&lt;/div&gt;&lt;div&gt;&lt;font size=&quot;3&quot;&gt;&lt;br&gt;&lt;/font&gt;&lt;/div&gt;&lt;div&gt;&lt;font size=&quot;3&quot;&gt;信任链基于业务伙伴关系和运输链中的信任。 它们确保在服务器上共享物流对象的公司始终知道谁可以访问该对象，并且可以随时撤销全部或部分信任链。&lt;/font&gt;&lt;/div&gt;" style="text;html=1;strokeColor=none;fillColor=none;align=center;verticalAlign=middle;whiteSpace=wrap;rounded=0;" vertex="1" parent="1">
          <mxGeometry x="50" y="-520" width="1050" height="540" as="geometry" />
        </mxCell>
        <mxCell id="LzLG4S2-5mhf3BxTma1q-17" value="" style="endArrow=classic;html=1;rounded=0;fillColor=#ffe6cc;strokeColor=#FF3333;movable=1;resizable=1;rotatable=1;deletable=1;editable=1;locked=0;connectable=1;" edge="1" parent="1">
          <mxGeometry width="50" height="50" relative="1" as="geometry">
            <mxPoint x="40" y="40" as="sourcePoint" />
            <mxPoint x="40" y="810" as="targetPoint" />
          </mxGeometry>
        </mxCell>
        <mxCell id="LzLG4S2-5mhf3BxTma1q-19" value="Time" style="text;html=1;strokeColor=none;fillColor=none;align=center;verticalAlign=middle;whiteSpace=wrap;rounded=0;" vertex="1" parent="1">
          <mxGeometry x="10" y="350" width="60" height="30" as="geometry" />
        </mxCell>
        <mxCell id="LzLG4S2-5mhf3BxTma1q-48" style="edgeStyle=orthogonalEdgeStyle;rounded=0;orthogonalLoop=1;jettySize=auto;html=1;entryX=0;entryY=0.5;entryDx=0;entryDy=0;movable=1;resizable=1;rotatable=1;deletable=1;editable=1;locked=0;connectable=1;" edge="1" parent="1" source="LzLG4S2-5mhf3BxTma1q-46" target="LzLG4S2-5mhf3BxTma1q-47">
          <mxGeometry relative="1" as="geometry" />
        </mxCell>
        <mxCell id="LzLG4S2-5mhf3BxTma1q-46" value="发送DelegationRequest，表示希望&lt;br&gt;Revoke给地勤人员Read LO的权限" style="rounded=1;whiteSpace=wrap;html=1;shadow=0;labelBackgroundColor=none;strokeWidth=1;fontFamily=Verdana;fontSize=8;align=center;movable=1;resizable=1;rotatable=1;deletable=1;editable=1;locked=0;connectable=1;" vertex="1" parent="1">
          <mxGeometry x="90" y="540" width="200" height="60" as="geometry" />
        </mxCell>
        <mxCell id="LzLG4S2-5mhf3BxTma1q-49" style="edgeStyle=orthogonalEdgeStyle;rounded=0;orthogonalLoop=1;jettySize=auto;html=1;movable=1;resizable=1;rotatable=1;deletable=1;editable=1;locked=0;connectable=1;" edge="1" parent="1" source="LzLG4S2-5mhf3BxTma1q-47">
          <mxGeometry relative="1" as="geometry">
            <mxPoint x="290" y="580" as="targetPoint" />
            <Array as="points">
              <mxPoint x="290" y="580" />
            </Array>
          </mxGeometry>
        </mxCell>
        <mxCell id="LzLG4S2-5mhf3BxTma1q-47" value="货运代理将地勤人员的授权记录删除&lt;br&gt;实现权限Revoke" style="rounded=1;whiteSpace=wrap;html=1;shadow=0;labelBackgroundColor=none;strokeWidth=1;fontFamily=Verdana;fontSize=8;align=center;movable=1;resizable=1;rotatable=1;deletable=1;editable=1;locked=0;connectable=1;" vertex="1" parent="1">
          <mxGeometry x="470" y="540" width="240" height="60" as="geometry" />
        </mxCell>
        <mxCell id="LzLG4S2-5mhf3BxTma1q-50" value="请求" style="text;html=1;strokeColor=none;fillColor=none;align=center;verticalAlign=middle;whiteSpace=wrap;rounded=0;movable=1;resizable=1;rotatable=1;deletable=1;editable=1;locked=0;connectable=1;" vertex="1" parent="1">
          <mxGeometry x="350" y="540" width="60" height="30" as="geometry" />
        </mxCell>
        <mxCell id="LzLG4S2-5mhf3BxTma1q-52" value="成功" style="text;html=1;strokeColor=none;fillColor=none;align=center;verticalAlign=middle;whiteSpace=wrap;rounded=0;movable=1;resizable=1;rotatable=1;deletable=1;editable=1;locked=0;connectable=1;" vertex="1" parent="1">
          <mxGeometry x="350" y="580" width="60" height="30" as="geometry" />
        </mxCell>
        <mxCell id="LzLG4S2-5mhf3BxTma1q-55" style="edgeStyle=orthogonalEdgeStyle;rounded=0;orthogonalLoop=1;jettySize=auto;html=1;entryX=1;entryY=0.5;entryDx=0;entryDy=0;movable=1;resizable=1;rotatable=1;deletable=1;editable=1;locked=0;connectable=1;" edge="1" parent="1" source="LzLG4S2-5mhf3BxTma1q-53" target="LzLG4S2-5mhf3BxTma1q-54">
          <mxGeometry relative="1" as="geometry" />
        </mxCell>
        <mxCell id="LzLG4S2-5mhf3BxTma1q-53" value="访问货运代理中的LO" style="rounded=1;whiteSpace=wrap;html=1;shadow=0;labelBackgroundColor=none;strokeWidth=1;fontFamily=Verdana;fontSize=8;align=center;movable=1;resizable=1;rotatable=1;deletable=1;editable=1;locked=0;connectable=1;" vertex="1" parent="1">
          <mxGeometry x="810" y="680" width="210" height="60" as="geometry" />
        </mxCell>
        <mxCell id="LzLG4S2-5mhf3BxTma1q-54" value="LO GET API&lt;br&gt;查找授权记录，若授权返回数据" style="rounded=1;whiteSpace=wrap;html=1;shadow=0;labelBackgroundColor=none;strokeWidth=1;fontFamily=Verdana;fontSize=8;align=center;movable=1;resizable=1;rotatable=1;deletable=1;editable=1;locked=0;connectable=1;" vertex="1" parent="1">
          <mxGeometry x="480" y="680" width="220" height="60" as="geometry" />
        </mxCell>
        <mxCell id="LzLG4S2-5mhf3BxTma1q-56" value="访问失败" style="text;html=1;strokeColor=none;fillColor=none;align=center;verticalAlign=middle;whiteSpace=wrap;rounded=0;movable=1;resizable=1;rotatable=1;deletable=1;editable=1;locked=0;connectable=1;" vertex="1" parent="1">
          <mxGeometry x="720" y="670" width="60" height="30" as="geometry" />
        </mxCell>
        <mxCell id="LzLG4S2-5mhf3BxTma1q-58" value="&lt;font style=&quot;&quot;&gt;&lt;font style=&quot;font-size: 24px;&quot;&gt;Subscription&lt;/font&gt;&lt;br&gt;&lt;/font&gt;&lt;div&gt;&lt;font style=&quot;font-size: 16px;&quot;&gt;当在ONE Record Server上创建或更新物流对象时，会发生发布操作。 这时获得授权公司的可以通过 Open API 检索物流对象。&lt;/font&gt;&lt;/div&gt;&lt;div&gt;&lt;font size=&quot;3&quot;&gt;&lt;br&gt;&lt;/font&gt;&lt;/div&gt;&lt;div&gt;&lt;font size=&quot;3&quot;&gt;数据拥有者会从授予此物流对象访问权限的公司的集合里查找订阅信息。 如果存在订阅了该主题物流对象的公司，那么数据拥有者就会在物流对象更新时推送相应的信息。 这样做的前提是公司必须通过之前交换的公司标识符相互了解，以便机器在运行期间可以查询。&lt;/font&gt;&lt;/div&gt;&lt;div&gt;&lt;font size=&quot;3&quot;&gt;&lt;br&gt;&lt;/font&gt;&lt;/div&gt;&lt;div&gt;&lt;font size=&quot;3&quot;&gt;另外，如果订阅者当时不可用，则发布者将需要在一定时间内重试推送物流对象。&lt;/font&gt;&lt;/div&gt;" style="text;html=1;strokeColor=none;fillColor=none;align=center;verticalAlign=middle;whiteSpace=wrap;rounded=0;" vertex="1" parent="1">
          <mxGeometry x="1500" y="-500" width="600" height="345" as="geometry" />
        </mxCell>
        <mxCell id="LzLG4S2-5mhf3BxTma1q-59" value="Subscription&amp;nbsp;&lt;br&gt;" style="swimlane;html=1;childLayout=stackLayout;startSize=20;rounded=0;shadow=0;labelBackgroundColor=none;strokeWidth=1;fontFamily=Verdana;fontSize=8;align=center;movable=1;resizable=1;rotatable=1;deletable=1;editable=1;locked=0;connectable=1;" vertex="1" parent="1">
          <mxGeometry x="1210" y="40" width="980" height="770" as="geometry" />
        </mxCell>
        <mxCell id="LzLG4S2-5mhf3BxTma1q-60" value="航空公司（拥有对货运代理Waybill的访问权限）" style="swimlane;html=1;startSize=20;movable=1;resizable=1;rotatable=1;deletable=1;editable=1;locked=0;connectable=1;" vertex="1" parent="LzLG4S2-5mhf3BxTma1q-59">
          <mxGeometry y="20" width="360" height="750" as="geometry" />
        </mxCell>
        <mxCell id="LzLG4S2-5mhf3BxTma1q-61" value="航空公司订阅货运代理中&lt;br&gt;Waybill对象" style="rounded=1;whiteSpace=wrap;html=1;shadow=0;labelBackgroundColor=none;strokeWidth=1;fontFamily=Verdana;fontSize=8;align=center;movable=1;resizable=1;rotatable=1;deletable=1;editable=1;locked=0;connectable=1;" vertex="1" parent="LzLG4S2-5mhf3BxTma1q-60">
          <mxGeometry x="20" y="65" width="200" height="60" as="geometry" />
        </mxCell>
        <mxCell id="LzLG4S2-5mhf3BxTma1q-64" value="订阅请求" style="text;html=1;strokeColor=none;fillColor=none;align=center;verticalAlign=middle;whiteSpace=wrap;rounded=0;movable=1;resizable=1;rotatable=1;deletable=1;editable=1;locked=0;connectable=1;" vertex="1" parent="LzLG4S2-5mhf3BxTma1q-60">
          <mxGeometry x="290" y="65" width="60" height="30" as="geometry" />
        </mxCell>
        <mxCell id="LzLG4S2-5mhf3BxTma1q-88" value="是否返回success/fail?" style="text;html=1;strokeColor=none;fillColor=none;align=center;verticalAlign=middle;whiteSpace=wrap;rounded=0;" vertex="1" parent="LzLG4S2-5mhf3BxTma1q-60">
          <mxGeometry x="290" y="120" width="60" height="30" as="geometry" />
        </mxCell>
        <mxCell id="LzLG4S2-5mhf3BxTma1q-91" value="航空公司Callback API" style="rounded=1;whiteSpace=wrap;html=1;shadow=0;labelBackgroundColor=none;strokeWidth=1;fontFamily=Verdana;fontSize=8;align=center;movable=1;resizable=1;rotatable=1;deletable=1;editable=1;locked=0;connectable=1;" vertex="1" parent="LzLG4S2-5mhf3BxTma1q-60">
          <mxGeometry x="30" y="260" width="200" height="60" as="geometry" />
        </mxCell>
        <mxCell id="LzLG4S2-5mhf3BxTma1q-92" value="notification" style="text;html=1;strokeColor=none;fillColor=none;align=center;verticalAlign=middle;whiteSpace=wrap;rounded=0;movable=1;resizable=1;rotatable=1;deletable=1;editable=1;locked=0;connectable=1;" vertex="1" parent="LzLG4S2-5mhf3BxTma1q-60">
          <mxGeometry x="290" y="260" width="60" height="30" as="geometry" />
        </mxCell>
        <mxCell id="LzLG4S2-5mhf3BxTma1q-93" value="航空公司收到notification,会对消息做相应处理" style="rounded=1;whiteSpace=wrap;html=1;shadow=0;labelBackgroundColor=none;strokeWidth=1;fontFamily=Verdana;fontSize=8;align=center;movable=1;resizable=1;rotatable=1;deletable=1;editable=1;locked=0;connectable=1;" vertex="1" parent="LzLG4S2-5mhf3BxTma1q-60">
          <mxGeometry x="30" y="400" width="200" height="60" as="geometry" />
        </mxCell>
        <mxCell id="LzLG4S2-5mhf3BxTma1q-96" value="response" style="text;html=1;strokeColor=none;fillColor=none;align=center;verticalAlign=middle;whiteSpace=wrap;rounded=0;movable=1;resizable=1;rotatable=1;deletable=1;editable=1;locked=0;connectable=1;" vertex="1" parent="LzLG4S2-5mhf3BxTma1q-60">
          <mxGeometry x="290" y="310" width="60" height="30" as="geometry" />
        </mxCell>
        <mxCell id="LzLG4S2-5mhf3BxTma1q-66" value="货运代理" style="swimlane;html=1;startSize=20;movable=1;resizable=1;rotatable=1;deletable=1;editable=1;locked=0;connectable=1;" vertex="1" parent="LzLG4S2-5mhf3BxTma1q-59">
          <mxGeometry x="360" y="20" width="320" height="750" as="geometry" />
        </mxCell>
        <mxCell id="LzLG4S2-5mhf3BxTma1q-67" value="One Record API" style="rounded=1;whiteSpace=wrap;html=1;shadow=0;labelBackgroundColor=none;strokeWidth=1;fontFamily=Verdana;fontSize=8;align=center;movable=1;resizable=1;rotatable=1;deletable=1;editable=1;locked=0;connectable=1;" vertex="1" parent="LzLG4S2-5mhf3BxTma1q-66">
          <mxGeometry x="30" y="65" width="240" height="60" as="geometry" />
        </mxCell>
        <mxCell id="LzLG4S2-5mhf3BxTma1q-90" style="edgeStyle=orthogonalEdgeStyle;rounded=0;orthogonalLoop=1;jettySize=auto;html=1;" edge="1" parent="LzLG4S2-5mhf3BxTma1q-66" source="LzLG4S2-5mhf3BxTma1q-70">
          <mxGeometry relative="1" as="geometry">
            <mxPoint x="-130" y="290" as="targetPoint" />
          </mxGeometry>
        </mxCell>
        <mxCell id="LzLG4S2-5mhf3BxTma1q-70" value="创建Waybill对象时，在所有拥有Waybill访问权限的公司中检索出订阅过Waybill类型的公司，向它们发送通知。" style="rounded=1;whiteSpace=wrap;html=1;shadow=0;labelBackgroundColor=none;strokeWidth=1;fontFamily=Verdana;fontSize=8;align=center;movable=1;resizable=1;rotatable=1;deletable=1;editable=1;locked=0;connectable=1;" vertex="1" parent="LzLG4S2-5mhf3BxTma1q-66">
          <mxGeometry x="30" y="260" width="240" height="60" as="geometry" />
        </mxCell>
        <mxCell id="LzLG4S2-5mhf3BxTma1q-101" style="edgeStyle=orthogonalEdgeStyle;rounded=0;orthogonalLoop=1;jettySize=auto;html=1;entryX=1;entryY=0.5;entryDx=0;entryDy=0;" edge="1" parent="LzLG4S2-5mhf3BxTma1q-66" source="LzLG4S2-5mhf3BxTma1q-70" target="LzLG4S2-5mhf3BxTma1q-70">
          <mxGeometry relative="1" as="geometry" />
        </mxCell>
        <mxCell id="LzLG4S2-5mhf3BxTma1q-102" value="如果没有收到success response 会根据重试策略重发消息" style="text;html=1;strokeColor=none;fillColor=none;align=center;verticalAlign=middle;whiteSpace=wrap;rounded=0;" vertex="1" parent="LzLG4S2-5mhf3BxTma1q-66">
          <mxGeometry x="150" y="200" width="130" height="30" as="geometry" />
        </mxCell>
        <mxCell id="LzLG4S2-5mhf3BxTma1q-95" style="edgeStyle=orthogonalEdgeStyle;rounded=0;orthogonalLoop=1;jettySize=auto;html=1;entryX=0;entryY=0.75;entryDx=0;entryDy=0;" edge="1" parent="LzLG4S2-5mhf3BxTma1q-59" source="LzLG4S2-5mhf3BxTma1q-91" target="LzLG4S2-5mhf3BxTma1q-70">
          <mxGeometry relative="1" as="geometry">
            <Array as="points">
              <mxPoint x="270" y="325" />
              <mxPoint x="270" y="325" />
            </Array>
          </mxGeometry>
        </mxCell>
        <mxCell id="LzLG4S2-5mhf3BxTma1q-103" style="edgeStyle=orthogonalEdgeStyle;rounded=0;orthogonalLoop=1;jettySize=auto;html=1;entryX=0;entryY=0.5;entryDx=0;entryDy=0;" edge="1" parent="LzLG4S2-5mhf3BxTma1q-59" source="LzLG4S2-5mhf3BxTma1q-61" target="LzLG4S2-5mhf3BxTma1q-67">
          <mxGeometry relative="1" as="geometry" />
        </mxCell>
        <mxCell id="LzLG4S2-5mhf3BxTma1q-109" style="edgeStyle=orthogonalEdgeStyle;rounded=0;orthogonalLoop=1;jettySize=auto;html=1;entryX=1;entryY=0.5;entryDx=0;entryDy=0;" edge="1" parent="LzLG4S2-5mhf3BxTma1q-59" source="LzLG4S2-5mhf3BxTma1q-108" target="LzLG4S2-5mhf3BxTma1q-67">
          <mxGeometry relative="1" as="geometry" />
        </mxCell>
        <mxCell id="LzLG4S2-5mhf3BxTma1q-111" style="edgeStyle=orthogonalEdgeStyle;rounded=0;orthogonalLoop=1;jettySize=auto;html=1;entryX=0;entryY=0.5;entryDx=0;entryDy=0;" edge="1" parent="LzLG4S2-5mhf3BxTma1q-59" source="LzLG4S2-5mhf3BxTma1q-61" target="LzLG4S2-5mhf3BxTma1q-67">
          <mxGeometry relative="1" as="geometry" />
        </mxCell>
        <mxCell id="LzLG4S2-5mhf3BxTma1q-113" style="edgeStyle=orthogonalEdgeStyle;rounded=0;orthogonalLoop=1;jettySize=auto;html=1;entryX=1;entryY=0.75;entryDx=0;entryDy=0;" edge="1" parent="LzLG4S2-5mhf3BxTma1q-59" source="LzLG4S2-5mhf3BxTma1q-67" target="LzLG4S2-5mhf3BxTma1q-61">
          <mxGeometry relative="1" as="geometry">
            <Array as="points">
              <mxPoint x="350" y="130" />
              <mxPoint x="350" y="130" />
            </Array>
          </mxGeometry>
        </mxCell>
        <mxCell id="LzLG4S2-5mhf3BxTma1q-114" style="edgeStyle=orthogonalEdgeStyle;rounded=0;orthogonalLoop=1;jettySize=auto;html=1;entryX=0;entryY=0.75;entryDx=0;entryDy=0;" edge="1" parent="LzLG4S2-5mhf3BxTma1q-59" source="LzLG4S2-5mhf3BxTma1q-67" target="LzLG4S2-5mhf3BxTma1q-108">
          <mxGeometry relative="1" as="geometry">
            <Array as="points">
              <mxPoint x="660" y="130" />
              <mxPoint x="660" y="130" />
            </Array>
          </mxGeometry>
        </mxCell>
        <mxCell id="LzLG4S2-5mhf3BxTma1q-105" value="地勤人员（没有对货运代理Waybill的访问权限）" style="swimlane;html=1;startSize=20;movable=1;resizable=1;rotatable=1;deletable=1;editable=1;locked=0;connectable=1;" vertex="1" parent="LzLG4S2-5mhf3BxTma1q-59">
          <mxGeometry x="680" y="20" width="300" height="750" as="geometry" />
        </mxCell>
        <mxCell id="LzLG4S2-5mhf3BxTma1q-108" value="地勤人员订阅货运代理中&lt;br&gt;Waybill对象" style="rounded=1;whiteSpace=wrap;html=1;shadow=0;labelBackgroundColor=none;strokeWidth=1;fontFamily=Verdana;fontSize=8;align=center;movable=1;resizable=1;rotatable=1;deletable=1;editable=1;locked=0;connectable=1;" vertex="1" parent="LzLG4S2-5mhf3BxTma1q-105">
          <mxGeometry x="70" y="65" width="200" height="60" as="geometry" />
        </mxCell>
        <mxCell id="LzLG4S2-5mhf3BxTma1q-110" value="订阅请求" style="text;html=1;strokeColor=none;fillColor=none;align=center;verticalAlign=middle;whiteSpace=wrap;rounded=0;movable=1;resizable=1;rotatable=1;deletable=1;editable=1;locked=0;connectable=1;" vertex="1" parent="LzLG4S2-5mhf3BxTma1q-105">
          <mxGeometry x="-10" y="65" width="60" height="30" as="geometry" />
        </mxCell>
        <mxCell id="LzLG4S2-5mhf3BxTma1q-115" value="是否返回success/fail?" style="text;html=1;strokeColor=none;fillColor=none;align=center;verticalAlign=middle;whiteSpace=wrap;rounded=0;" vertex="1" parent="LzLG4S2-5mhf3BxTma1q-105">
          <mxGeometry x="-20" y="125" width="60" height="30" as="geometry" />
        </mxCell>
        <mxCell id="LzLG4S2-5mhf3BxTma1q-117" value="地勤人员Callback API" style="rounded=1;whiteSpace=wrap;html=1;shadow=0;labelBackgroundColor=none;strokeWidth=1;fontFamily=Verdana;fontSize=8;align=center;movable=1;resizable=1;rotatable=1;deletable=1;editable=1;locked=0;connectable=1;" vertex="1" parent="LzLG4S2-5mhf3BxTma1q-105">
          <mxGeometry x="70" y="270" width="200" height="60" as="geometry" />
        </mxCell>
        <mxCell id="LzLG4S2-5mhf3BxTma1q-76" value="" style="endArrow=classic;html=1;rounded=0;fillColor=#ffe6cc;strokeColor=#FF3333;movable=1;resizable=1;rotatable=1;deletable=1;editable=1;locked=0;connectable=1;" edge="1" parent="1">
          <mxGeometry width="50" height="50" relative="1" as="geometry">
            <mxPoint x="1180" y="50" as="sourcePoint" />
            <mxPoint x="1180" y="820" as="targetPoint" />
          </mxGeometry>
        </mxCell>
        <mxCell id="LzLG4S2-5mhf3BxTma1q-89" value="Time" style="text;html=1;strokeColor=none;fillColor=none;align=center;verticalAlign=middle;whiteSpace=wrap;rounded=0;" vertex="1" parent="1">
          <mxGeometry x="1140" y="350" width="60" height="30" as="geometry" />
        </mxCell>
      </root>
    </mxGraphModel>
  </diagram>
</mxfile>
